# Blender v2.71 (sub 0) OBJ File: ''
# www.blender.org
mtllib Target.mtl
o Cylinder01
v 0.000005 0.000004 -1.500000
v 33.881104 12.331715 -1.499998
v 36.055515 0.000004 -1.500000
v 27.620127 23.176041 -1.499995
v 18.027760 31.224995 -1.499994
v 6.260976 35.507748 -1.499993
v -6.260973 35.507748 -1.499993
v -18.027754 31.224987 -1.499994
v -27.620121 23.176041 -1.499995
v -33.881092 12.331718 -1.499998
v -36.055508 0.000008 -1.500000
v -33.881096 -12.331699 -1.500003
v -27.620127 -23.176023 -1.500005
v -18.027763 -31.224979 -1.500007
v -6.260984 -35.507740 -1.500008
v 6.260961 -35.507748 -1.500008
v 18.027742 -31.224995 -1.500007
v 27.620113 -23.176050 -1.500005
v 33.881092 -12.331732 -1.500003
v 33.881104 12.331715 1.500002
v 36.055515 0.000004 1.500000
v 27.620127 23.176041 1.500005
v 18.027760 31.224995 1.500007
v 6.260976 35.507748 1.500007
v -6.260973 35.507748 1.500007
v -18.027754 31.224987 1.500007
v -27.620121 23.176041 1.500005
v -33.881092 12.331718 1.500002
v -36.055508 0.000007 1.500000
v -33.881096 -12.331699 1.499997
v -27.620127 -23.176023 1.499995
v -18.027763 -31.224979 1.499993
v -6.260984 -35.507740 1.499992
v 6.260961 -35.507748 1.499992
v 18.027742 -31.224995 1.499993
v 27.620113 -23.176050 1.499995
v 33.881092 -12.331732 1.499997
v 0.000005 0.000004 1.500000
vt 0.745978 0.745978
vt 0.984681 0.834199
vt 1.000000 0.745978
vt 0.940570 0.911779
vt 0.872989 0.969361
vt 0.790089 1.000000
vt 0.701868 1.000000
vt 0.618968 0.969361
vt 0.551386 0.911779
vt 0.507276 0.834199
vt 0.491957 0.745978
vt 0.507276 0.657758
vt 0.551386 0.580178
vt 0.618967 0.522596
vt 0.701868 0.491957
vt 0.790089 0.491957
vt 0.872989 0.522595
vt 0.940570 0.580177
vt 0.984681 0.657757
vt 0.933107 0.001871
vt 0.949900 0.304153
vt 0.933107 0.304153
vt 0.949900 0.001871
vt 0.966694 0.304153
vt 0.966694 0.001871
vt 0.983487 0.304153
vt 0.983487 0.001871
vt 1.000281 0.304153
vt 1.000281 0.001871
vt 0.697998 0.001871
vt 0.714792 0.304153
vt 0.697998 0.304153
vt 0.714792 0.001871
vt 0.731585 0.304153
vt 0.731585 0.001871
vt 0.748379 0.304153
vt 0.748379 0.001871
vt 0.765172 0.304153
vt 0.765172 0.001871
vt 0.781966 0.304153
vt 0.781966 0.001871
vt 0.798759 0.304153
vt 0.798759 0.001871
vt 0.815553 0.304153
vt 0.815553 0.001871
vt 0.832346 0.304153
vt 0.832346 0.001871
vt 0.849140 0.304153
vt 0.849140 0.001871
vt 0.865933 0.304153
vt 0.865933 0.001871
vt 0.882726 0.304153
vt 0.882726 0.001871
vt 0.899520 0.304153
vt 0.899520 0.001871
vt 0.916313 0.304153
vt 0.916313 0.001871
vt 0.272727 0.272727
vt 0.545455 0.272727
vt 0.529007 0.367444
vt 0.481648 0.450737
vt 0.409091 0.512560
vt 0.320086 0.545455
vt 0.225369 0.545455
vt 0.136364 0.512560
vt 0.063806 0.450737
vt 0.016448 0.367445
vt 0.000000 0.272727
vt 0.016447 0.178010
vt 0.063806 0.094717
vt 0.136364 0.032895
vt 0.225369 0.000000
vt 0.320086 0.000000
vt 0.409091 0.032895
vt 0.481648 0.094717
vt 0.529007 0.178010
vn 0.000000 0.000000 -1.000000
vn 1.000000 -0.000000 0.000000
vn 0.939700 0.342000 0.000000
vn 0.766000 0.642800 0.000000
vn 0.500000 0.866000 0.000000
vn 0.173600 0.984800 0.000000
vn -0.173600 0.984800 0.000000
vn -0.500000 0.866000 0.000000
vn -0.766000 0.642800 0.000000
vn -0.939700 0.342000 0.000000
vn -1.000000 0.000000 0.000000
vn -0.939700 -0.342000 0.000000
vn -0.766000 -0.642800 0.000000
vn -0.500000 -0.866000 0.000000
vn -0.173600 -0.984800 0.000000
vn 0.173600 -0.984800 0.000000
vn 0.500000 -0.866000 0.000000
vn 0.766000 -0.642800 0.000000
vn 0.939700 -0.342000 0.000000
vn 0.000000 0.000000 1.000000
g Cylinder01_Cylinder01_None
usemtl None
s 1
f 1/1/1 2/2/1 3/3/1
f 1/1/1 4/4/1 2/2/1
f 1/1/1 5/5/1 4/4/1
f 1/1/1 6/6/1 5/5/1
f 1/1/1 7/7/1 6/6/1
f 1/1/1 8/8/1 7/7/1
f 1/1/1 9/9/1 8/8/1
f 1/1/1 10/10/1 9/9/1
f 1/1/1 11/11/1 10/10/1
f 1/1/1 12/12/1 11/11/1
f 1/1/1 13/13/1 12/12/1
f 1/1/1 14/14/1 13/13/1
f 1/1/1 15/15/1 14/14/1
f 1/1/1 16/16/1 15/15/1
f 1/1/1 17/17/1 16/16/1
f 1/1/1 18/18/1 17/17/1
f 1/1/1 19/19/1 18/18/1
f 1/1/1 3/3/1 19/19/1
f 3/20/2 20/21/3 21/22/2
f 3/20/2 2/23/3 20/21/3
f 2/23/3 22/24/4 20/21/3
f 2/23/3 4/25/4 22/24/4
f 4/25/4 23/26/5 22/24/4
f 4/25/4 5/27/5 23/26/5
f 5/27/5 24/28/6 23/26/5
f 5/27/5 6/29/6 24/28/6
f 6/30/6 25/31/7 24/32/6
f 6/30/6 7/33/7 25/31/7
f 7/33/7 26/34/8 25/31/7
f 7/33/7 8/35/8 26/34/8
f 8/35/8 27/36/9 26/34/8
f 8/35/8 9/37/9 27/36/9
f 9/37/9 28/38/10 27/36/9
f 9/37/9 10/39/10 28/38/10
f 10/39/10 29/40/11 28/38/10
f 10/39/10 11/41/11 29/40/11
f 11/41/11 30/42/12 29/40/11
f 11/41/11 12/43/12 30/42/12
f 12/43/12 31/44/13 30/42/12
f 12/43/12 13/45/13 31/44/13
f 13/45/13 32/46/14 31/44/13
f 13/45/13 14/47/14 32/46/14
f 14/47/14 33/48/15 32/46/14
f 14/47/14 15/49/15 33/48/15
f 15/49/15 34/50/16 33/48/15
f 15/49/15 16/51/16 34/50/16
f 16/51/16 35/52/17 34/50/16
f 16/51/16 17/53/17 35/52/17
f 17/53/17 36/54/18 35/52/17
f 17/53/17 18/55/18 36/54/18
f 18/55/18 37/56/19 36/54/18
f 18/55/18 19/57/19 37/56/19
f 19/57/19 21/22/2 37/56/19
f 19/57/19 3/20/2 21/22/2
f 38/58/20 21/59/20 20/60/20
f 38/58/20 20/60/20 22/61/20
f 38/58/20 22/61/20 23/62/20
f 38/58/20 23/62/20 24/63/20
f 38/58/20 24/63/20 25/64/20
f 38/58/20 25/64/20 26/65/20
f 38/58/20 26/65/20 27/66/20
f 38/58/20 27/66/20 28/67/20
f 38/58/20 28/67/20 29/68/20
f 38/58/20 29/68/20 30/69/20
f 38/58/20 30/69/20 31/70/20
f 38/58/20 31/70/20 32/71/20
f 38/58/20 32/71/20 33/72/20
f 38/58/20 33/72/20 34/73/20
f 38/58/20 34/73/20 35/74/20
f 38/58/20 35/74/20 36/75/20
f 38/58/20 36/75/20 37/76/20
f 38/58/20 37/76/20 21/59/20
